ffmpeg version 2.8.11-0ubuntu0.16.04.1 Copyright (c) 2000-2017 the FFmpeg developers
  built with gcc 5.4.0 (Ubuntu 5.4.0-6ubuntu1~16.04.4) 20160609
  configuration: --prefix=/usr --extra-version=0ubuntu0.16.04.1 --build-suffix=-ffmpeg --toolchain=hardened --libdir=/usr/lib/x86_64-linux-gnu --incdir=/usr/include/x86_64-linux-gnu --cc=cc --cxx=g++ --enable-gpl --enable-shared --disable-stripping --disable-decoder=libopenjpeg --disable-decoder=libschroedinger --enable-avresample --enable-avisynth --enable-gnutls --enable-ladspa --enable-libass --enable-libbluray --enable-libbs2b --enable-libcaca --enable-libcdio --enable-libflite --enable-libfontconfig --enable-libfreetype --enable-libfribidi --enable-libgme --enable-libgsm --enable-libmodplug --enable-libmp3lame --enable-libopenjpeg --enable-libopus --enable-libpulse --enable-librtmp --enable-libschroedinger --enable-libshine --enable-libsnappy --enable-libsoxr --enable-libspeex --enable-libssh --enable-libtheora --enable-libtwolame --enable-libvorbis --enable-libvpx --enable-libwavpack --enable-libwebp --enable-libx265 --enable-libxvid --enable-libzvbi --enable-openal --enable-opengl --enable-x11grab --enable-libdc1394 --enable-libiec61883 --enable-libzmq --enable-frei0r --enable-libx264 --enable-libopencv
  libavutil      54. 31.100 / 54. 31.100
  libavcodec     56. 60.100 / 56. 60.100
  libavformat    56. 40.101 / 56. 40.101
  libavdevice    56.  4.100 / 56.  4.100
  libavfilter     5. 40.101 /  5. 40.101
  libavresample   2.  1.  0 /  2.  1.  0
  libswscale      3.  1.101 /  3.  1.101
  libswresample   1.  2.101 /  1.  2.101
  libpostproc    53.  3.100 / 53.  3.100
[mp3 @ 0x189c8c0] Unknown attached picture mimetype: ('image/png', None), skipping.
[mp3 @ 0x189c8c0] Skipping 0 bytes of junk at 17522.
Input #0, mp3, from '108-miguel-de-cervantes-saavedra-don-kichot-z-la-manchy-ksiega-08-rozdzial-05.mp3':
  Metadata:
    title           : Miguel De Cervantes Saavedra, "Don Kichot z La Manchy", księga 08, rozdział 05 (tłum. Walenty Zakrzewski)
    artist          : Wiktor Korzeniewski
    album           : Wolne Lektury
    genre           : 0
    URL             : http://wolnelektury.pl/katalog/lektura/don-kichot-z-la-manchy.
    encoder         : Lavf53.21.0
    date            : 2012
    CONDUCTOR       : Adam Bień
    performer       : Adam Bień
    album_artist    : Fundacja Nowoczesna Polska
    copyright       : 2012 Fundacja Nowoczesna Polska. Licensed to the public under http://creativecommons.org/licenses/by-sa/3.0/deed.pl verify at http://wolnelektury.pl/katalog/lektura/don-kichot-z-la-manchy
    TRANSLATOR      : Walenty Zakrzewski
    encoded_by      : Adam Bień
    publisher       : Fundacja Nowoczesna Polska
  Duration: 00:08:25.70, start: 0.000000, bitrate: 64 kb/s
    Stream #0:0: Audio: mp3, 44100 Hz, mono, s16p, 64 kb/s
Output #0, null, to 'pipe:':
  Metadata:
    title           : Miguel De Cervantes Saavedra, "Don Kichot z La Manchy", księga 08, rozdział 05 (tłum. Walenty Zakrzewski)
    artist          : Wiktor Korzeniewski
    album           : Wolne Lektury
    genre           : 0
    URL             : http://wolnelektury.pl/katalog/lektura/don-kichot-z-la-manchy.
    date            : 2012
    CONDUCTOR       : Adam Bień
    performer       : Adam Bień
    album_artist    : Fundacja Nowoczesna Polska
    copyright       : 2012 Fundacja Nowoczesna Polska. Licensed to the public under http://creativecommons.org/licenses/by-sa/3.0/deed.pl verify at http://wolnelektury.pl/katalog/lektura/don-kichot-z-la-manchy
    TRANSLATOR      : Walenty Zakrzewski
    encoded_by      : Adam Bień
    publisher       : Fundacja Nowoczesna Polska
    encoder         : Lavf56.40.101
    Stream #0:0: Audio: pcm_s16le, 44100 Hz, mono, s16, 705 kb/s
    Metadata:
      encoder         : Lavc56.60.100 pcm_s16le
Stream mapping:
  Stream #0:0 -> #0:0 (mp3 (native) -> pcm_s16le (native))
Press [q] to stop, [?] for help
[silencedetect @ 0x18afc80] silence_start: 1.51143
[silencedetect @ 0x18afc80] silence_end: 2.24653 | silence_duration: 0.735102
[silencedetect @ 0x18afc80] silence_start: 10.9678
[silencedetect @ 0x18afc80] silence_end: 11.5461 | silence_duration: 0.578367
[silencedetect @ 0x18afc80] silence_start: 14.7816
[silencedetect @ 0x18afc80] silence_end: 15.2816 | silence_duration: 0.5
[silencedetect @ 0x18afc80] silence_start: 22.0176
[silencedetect @ 0x18afc80] silence_end: 22.5698 | silence_duration: 0.552245
[silencedetect @ 0x18afc80] silence_start: 30.1416
[silencedetect @ 0x18afc80] silence_end: 30.7984 | silence_duration: 0.656735
[silencedetect @ 0x18afc80] silence_start: 37.3514
[silencedetect @ 0x18afc80] silence_end: 38.1127 | silence_duration: 0.761224
[silencedetect @ 0x18afc80] silence_start: 53.7824
[silencedetect @ 0x18afc80] silence_end: 54.3347 | silence_duration: 0.552245
[silencedetect @ 0x18afc80] silence_start: 87.4282
[silencedetect @ 0x18afc80] silence_end: 87.9543 | silence_duration: 0.526122
[silencedetect @ 0x18afc80] silence_start: 95.291
[silencedetect @ 0x18afc80] silence_end: 96 | silence_duration: 0.70898
[silencedetect @ 0x18afc80] silence_start: 115.64
[silencedetect @ 0x18afc80] silence_end: 116.167 | silence_duration: 0.526122
[silencedetect @ 0x18afc80] silence_start: 164.098
[silencedetect @ 0x18afc80] silence_end: 164.728 | silence_duration: 0.630612
[silencedetect @ 0x18afc80] silence_start: 191.5
[silencedetect @ 0x18afc80] silence_end: 192.078 | silence_duration: 0.578367
[silencedetect @ 0x18afc80] silence_start: 241.42
[silencedetect @ 0x18afc80] silence_end: 241.946 | silence_duration: 0.526122
[silencedetect @ 0x18afc80] silence_start: 259.105
[silencedetect @ 0x18afc80] silence_end: 259.683 | silence_duration: 0.578367
[silencedetect @ 0x18afc80] silence_start: 266.315
[silencedetect @ 0x18afc80] silence_end: 266.945 | silence_duration: 0.630612
[silencedetect @ 0x18afc80] silence_start: 292.463
[silencedetect @ 0x18afc80] silence_end: 292.963 | silence_duration: 0.5
[silencedetect @ 0x18afc80] silence_start: 299.908
[silencedetect @ 0x18afc80] silence_end: 300.565 | silence_duration: 0.656735
[silencedetect @ 0x18afc80] silence_start: 313.074
[silencedetect @ 0x18afc80] silence_end: 313.626 | silence_duration: 0.552245
[silencedetect @ 0x18afc80] silence_start: 316.156
[silencedetect @ 0x18afc80] silence_end: 316.709 | silence_duration: 0.552245
[silencedetect @ 0x18afc80] silence_start: 336.793
[silencedetect @ 0x18afc80] silence_end: 337.319 | silence_duration: 0.526122
[silencedetect @ 0x18afc80] silence_start: 344.578
[silencedetect @ 0x18afc80] silence_end: 345.234 | silence_duration: 0.656735
[silencedetect @ 0x18afc80] silence_start: 347.503
[silencedetect @ 0x18afc80] silence_end: 348.108 | silence_duration: 0.60449
[silencedetect @ 0x18afc80] silence_start: 356.986
[silencedetect @ 0x18afc80] silence_end: 357.512 | silence_duration: 0.526122
[silencedetect @ 0x18afc80] silence_start: 375.924
[silencedetect @ 0x18afc80] silence_end: 376.477 | silence_duration: 0.552245
[silencedetect @ 0x18afc80] silence_start: 388.568
[silencedetect @ 0x18afc80] silence_end: 389.172 | silence_duration: 0.60449
[silencedetect @ 0x18afc80] silence_start: 393.087
[silencedetect @ 0x18afc80] silence_end: 393.691 | silence_duration: 0.60449
[silencedetect @ 0x18afc80] silence_start: 403.588
[silencedetect @ 0x18afc80] silence_end: 404.14 | silence_duration: 0.552245
[silencedetect @ 0x18afc80] silence_start: 411.085
[silencedetect @ 0x18afc80] silence_end: 411.585 | silence_duration: 0.5
[silencedetect @ 0x18afc80] silence_start: 432.506
[silencedetect @ 0x18afc80] silence_end: 433.084 | silence_duration: 0.578367
[silencedetect @ 0x18afc80] silence_start: 449.72
[silencedetect @ 0x18afc80] silence_end: 450.325 | silence_duration: 0.60449
[silencedetect @ 0x18afc80] silence_start: 456.643
[silencedetect @ 0x18afc80] silence_end: 457.273 | silence_duration: 0.630612
[silencedetect @ 0x18afc80] silence_start: 477.802
[silencedetect @ 0x18afc80] silence_end: 478.511 | silence_duration: 0.70898
[silencedetect @ 0x18afc80] silence_start: 484.228
[silencedetect @ 0x18afc80] silence_end: 484.859 | silence_duration: 0.630612
[silencedetect @ 0x18afc80] silence_start: 503.585
size=N/A time=00:08:25.70 bitrate=N/A    
video:0kB audio:43558kB subtitle:0kB other streams:0kB global headers:0kB muxing overhead: unknown
